<?xml version="1.0" encoding="UTF-8"?>
<svg width="10px" height="16px" viewBox="0 0 10 16" version="1.1" xmlns="http://www.w3.org/2000/svg" xmlns:xlink="http://www.w3.org/1999/xlink">
    <!-- Generator: sketchtool 61 (101010) - https://sketch.com -->
    <title>76D65145-FF40-4821-9C03-B0766CEF12FB</title>
    <desc>Created with sketchtool.</desc>
    <g id="Page-1" stroke="none" stroke-width="1" fill="none" fill-rule="evenodd">
        <g id="Styles" transform="translate(-1580.000000, -201.000000)" fill="#FFBD48">
            <g id="Arrow-hover" transform="translate(1585.000000, 209.000000) scale(-1, 1) translate(-1585.000000, -209.000000) translate(1580.000000, 201.000000)">
                <path d="M8.44931641,1.43998501 C8.49181663,1.47885237 8.53256121,1.51959695 8.57142857,1.56209717 C9.38020354,2.44646673 9.38020354,3.80192194 8.57142857,4.6862915 L5.54,7.999 L8.57142857,11.3137085 C9.38020354,12.1980781 9.38020354,13.5535333 8.57142857,14.4379028 C7.84989104,15.226881 6.62537609,15.2815525 5.83639787,14.560015 C5.79389766,14.5211476 5.75315307,14.480403 5.71428571,14.4379028 L1.42857143,9.75161133 C0.978417936,9.25938289 0.778813948,8.62121733 0.829759463,7.99956802 C0.779028763,7.37809614 0.978660084,6.74035233 1.42857143,6.24838867 L5.71428571,1.56209717 C6.43582325,0.773118953 7.6603382,0.718447478 8.44931641,1.43998501 Z" id="Filled/16x16/Arrow"></path>
            </g>
        </g>
    </g>
</svg>