<?xml version="1.0" encoding="UTF-8"?>
<svg width="70px" height="115px" viewBox="0 0 70 115" version="1.1" xmlns="http://www.w3.org/2000/svg" xmlns:xlink="http://www.w3.org/1999/xlink">
    <!-- Generator: sketchtool 61 (101010) - https://sketch.com -->
    <title>3D201A0E-5240-4A6E-8F42-C6F94DDDBD85</title>
    <desc>Created with sketchtool.</desc>
    <g id="Page-1" stroke="none" stroke-width="1" fill="none" fill-rule="evenodd">
        <g id="Styles" transform="translate(-1160.000000, -327.000000)" fill="#484848">
            <path d="M1203.84214,385.530218 C1204.64747,387.547897 1203.55439,400.924814 1187.83677,399.89338 C1172.11914,398.861946 1163.00507,372.732314 1187.83677,352.983288 C1203.92672,338.771061 1220.12558,333.703307 1221.92803,332.694863 C1223.9386,330.88279 1228.04103,325.847496 1229.6561,327.240461 C1230.73282,328.169104 1229.28121,330.505104 1225.30128,334.248462 C1220.96495,347.571424 1219.59374,359.857171 1221.18766,371.105705 C1223.57853,387.978505 1227.00602,406.611671 1217.12764,420.749781 C1207.24925,434.88789 1196.09217,442 1177.17911,442 C1158.26604,442 1153.76208,417.942933 1169.76055,417.942933 C1173.89634,417.942933 1176.0624,420.007113 1176.0624,421.329075 C1169.08631,423.731473 1163.88575,434.736503 1177.17911,438.808102 C1180.98564,439.564497 1201.59002,438.808102 1208.81736,419.022514 C1213.27471,404.831308 1210.46778,377.589139 1211.41822,363.104137 C1212.36866,348.619135 1223.49607,335.16968 1222.97434,334.608253 C1222.45261,334.046827 1199.95305,344.59187 1190.22311,355.086976 C1180.49316,365.582082 1172.28693,383.222217 1186.53514,390.883534 C1197.32253,395.359591 1202.25292,383.382307 1203.84214,385.530218 Z" id="Icon-in-the-text"></path>
        </g>
    </g>
</svg>