<?xml version="1.0" encoding="UTF-8"?>
<svg width="53px" height="42px" viewBox="0 0 53 42" version="1.1" xmlns="http://www.w3.org/2000/svg" xmlns:xlink="http://www.w3.org/1999/xlink">
    <!-- Generator: sketchtool 61 (101010) - https://sketch.com -->
    <title>00FBF9DB-3135-43C8-9457-CD3DECE689CE</title>
    <desc>Created with sketchtool.</desc>
    <g id="Page-1" stroke="none" stroke-width="1" fill="none" fill-rule="evenodd" opacity="0.1">
        <g id="Home" transform="translate(-662.000000, -1214.000000)" fill="#484848" fill-rule="nonzero">
            <g id="Group-2" transform="translate(475.000000, 1182.000000)">
                <g id="Group" transform="translate(187.000000, 32.000000)">
                    <path d="M41.2642857,42 C44.2928571,42 46.8797619,40.9864253 49.025,38.959276 C51.1702381,36.9321267 52.2428571,34.5248869 52.2428571,31.7375566 C52.2428571,26.7963801 49.9714286,24.3257919 45.4285714,24.3257919 C43.1571429,24.3257919 41.5166667,25.0226244 40.5071429,26.4162896 C39.1190476,28.6968326 38.0464286,29.8371041 37.2892857,29.8371041 C35.775,29.8371041 35.0178571,28.2533937 35.0178571,25.0859729 C35.0178571,23.0588235 35.5857143,20.7782805 36.7214286,18.2443439 C38.9928571,13.1764706 43.2202381,8.61538462 49.4035714,4.56108597 C51.8011905,3.04072398 53,1.83710407 53,0.950226244 C53,0.316742081 52.6845238,0 52.0535714,0 C51.422619,0 49.8452381,0.665158371 47.3214286,1.99547511 C44.797619,3.32579186 42.9678571,4.49773756 41.8321429,5.51131222 C33.377381,12.8597285 29.15,20.6515837 29.15,28.8868778 C29.15,32.6877828 30.2857143,35.8235294 32.5571429,38.2941176 C34.8285714,40.7647059 37.7309524,42 41.2642857,42 Z M12.1142857,42 C15.2690476,42 17.8875,41.0180995 19.9696429,39.0542986 C22.0517857,37.0904977 23.0928571,34.6515837 23.0928571,31.7375566 C23.0928571,26.7963801 20.7583333,24.3257919 16.0892857,24.3257919 C13.9440476,24.3257919 12.3666667,25.0226244 11.3571429,26.4162896 C9.96904762,28.6968326 8.89642857,29.8371041 8.13928571,29.8371041 C6.625,29.8371041 5.86785714,28.3167421 5.86785714,25.2760181 C5.86785714,23.1221719 6.43571429,20.7782805 7.57142857,18.2443439 C9.84285714,13.1764706 14.0702381,8.61538462 20.2535714,4.56108597 C22.6511905,3.04072398 23.85,1.83710407 23.85,0.950226244 C23.85,0.316742081 23.5345238,0 22.9035714,0 C22.272619,0 20.6952381,0.696832579 18.1714286,2.09049774 C15.647619,3.4841629 13.8178571,4.68778281 12.6821429,5.70135747 C4.22738095,13.0497738 0,20.7782805 0,28.8868778 C0,32.6877828 1.13571429,35.8235294 3.40714286,38.2941176 C5.67857143,40.7647059 8.58095238,42 12.1142857,42 Z" id="quotes-open"></path>
                </g>
            </g>
        </g>
    </g>
</svg>