<?xml version="1.0" encoding="UTF-8"?>
<svg width="53px" height="42px" viewBox="0 0 53 42" version="1.1" xmlns="http://www.w3.org/2000/svg" xmlns:xlink="http://www.w3.org/1999/xlink">
    <!-- Generator: sketchtool 61 (101010) - https://sketch.com -->
    <title>AA3C7AB6-FCF6-4D87-8BCF-C49846ECA27A</title>
    <desc>Created with sketchtool.</desc>
    <g id="Page-1" stroke="none" stroke-width="1" fill="none" fill-rule="evenodd" opacity="0.1">
        <g id="Home" transform="translate(-1195.000000, -1311.000000)" fill="#484848" fill-rule="nonzero">
            <g id="Group-2" transform="translate(475.000000, 1182.000000)">
                <g id="Group" transform="translate(187.000000, 32.000000)">
                    <path d="M574.264286,139 C577.292857,139 579.879762,137.986425 582.025,135.959276 C584.170238,133.932127 585.242857,131.524887 585.242857,128.737557 C585.242857,123.79638 582.971429,121.325792 578.428571,121.325792 C576.157143,121.325792 574.516667,122.022624 573.507143,123.41629 C572.119048,125.696833 571.046429,126.837104 570.289286,126.837104 C568.775,126.837104 568.017857,125.253394 568.017857,122.085973 C568.017857,120.058824 568.585714,117.778281 569.721429,115.244344 C571.992857,110.176471 576.220238,105.615385 582.403571,101.561086 C584.80119,100.040724 586,98.8371041 586,97.9502262 C586,97.3167421 585.684524,97 585.053571,97 C584.422619,97 582.845238,97.6651584 580.321429,98.9954751 C577.797619,100.325792 575.967857,101.497738 574.832143,102.511312 C566.377381,109.859729 562.15,117.651584 562.15,125.886878 C562.15,129.687783 563.285714,132.823529 565.557143,135.294118 C567.828571,137.764706 570.730952,139 574.264286,139 Z M545.114286,139 C548.269048,139 550.8875,138.0181 552.969643,136.054299 C555.051786,134.090498 556.092857,131.651584 556.092857,128.737557 C556.092857,123.79638 553.758333,121.325792 549.089286,121.325792 C546.944048,121.325792 545.366667,122.022624 544.357143,123.41629 C542.969048,125.696833 541.896429,126.837104 541.139286,126.837104 C539.625,126.837104 538.867857,125.316742 538.867857,122.276018 C538.867857,120.122172 539.435714,117.778281 540.571429,115.244344 C542.842857,110.176471 547.070238,105.615385 553.253571,101.561086 C555.65119,100.040724 556.85,98.8371041 556.85,97.9502262 C556.85,97.3167421 556.534524,97 555.903571,97 C555.272619,97 553.695238,97.6968326 551.171429,99.0904977 C548.647619,100.484163 546.817857,101.687783 545.682143,102.701357 C537.227381,110.049774 533,117.778281 533,125.886878 C533,129.687783 534.135714,132.823529 536.407143,135.294118 C538.678571,137.764706 541.580952,139 545.114286,139 Z" id="quotes-close" transform="translate(559.500000, 118.000000) scale(-1, -1) translate(-559.500000, -118.000000) "></path>
                </g>
            </g>
        </g>
    </g>
</svg>